<svg width="16" height="16" viewBox="0 0 16 16" fill="none" xmlns="http://www.w3.org/2000/svg">
<path d="M8 0C3.58887 0 0 3.58887 0 8C0 12.4111 3.58887 16 8 16C12.4111 16 16 12.4111 16 8C16 3.58887 12.4111 0 8 0ZM8 1.00001C11.8599 1.00001 15 4.14015 15 8C15 9.60804 14.4494 11.0867 13.5344 12.2698C10.0249 10.6089 5.97507 10.6089 2.4656 12.2698C1.55062 11.0867 1.00001 9.60804 1.00001 8C1.00001 4.14015 4.14015 1.00001 8 1.00001ZM3.16705 13.0516C6.25214 11.6851 9.74786 11.6851 12.833 13.0516C11.5752 14.2554 9.8744 15 8 15C6.1256 15 4.4248 14.2554 3.16705 13.0516Z" fill="#8FCB2F"/>
</svg>
